<svg width="14" height="14" viewBox="0 0 14 14" fill="none" xmlns="http://www.w3.org/2000/svg">
<g clipPath="url(#clip0_3_88)">
<g clipPath="url(#clip1_3_88)">
<path d="M4.04842 0.916762C4.04827 1.22618 3.9252 1.52287 3.7063 1.74155C3.4874 1.96023 3.19059 2.083 2.88117 2.08285C2.57175 2.08269 2.27507 1.95963 2.05638 1.74072C1.8377 1.52182 1.71493 1.22501 1.71509 0.915595C1.71524 0.606176 1.83831 0.309491 2.05721 0.0908081C2.27611 -0.127875 2.57292 -0.250643 2.88234 -0.250488C3.19176 -0.250333 3.48844 -0.127269 3.70713 0.0916331C3.92581 0.310535 4.04858 0.607343 4.04842 0.916762V0.916762ZM4.08342 2.94676H1.75009V10.2501H4.08342V2.94676ZM7.77009 2.94676H5.44842V10.2501H7.74675V6.4176C7.74675 4.2826 10.5293 4.08426 10.5293 6.4176V10.2501H12.8334V5.62426C12.8334 2.0251 8.71509 2.15926 7.74675 3.92676L7.77009 2.94676V2.94676Z" fill="#2B2B2B"/>
</g>
</g>
<defs>
<clipPath id="clip0_3_88">
<rect width="14" height="14" fill="white"/>
</clipPath>
<clipPath id="clip1_3_88">
<rect width="14" height="14" fill="white" transform="translate(0 -2)"/>
</clipPath>
</defs>
</svg>
